<mxfile host="app.diagrams.net" modified="2023-03-17T08:15:33.080Z" agent="5.0 (Windows NT 10.0; Win64; x64) AppleWebKit/537.36 (KHTML, like Gecko) Chrome/111.0.0.0 Safari/537.36" etag="OBB-enf1yqnf_CvHdDDU" version="21.0.6" type="github">
  <diagram name="第 1 页" id="i25pyD8ZsRbbuRKxXFVC">
    <mxGraphModel dx="1434" dy="708" grid="1" gridSize="10" guides="1" tooltips="1" connect="1" arrows="1" fold="1" page="1" pageScale="1" pageWidth="827" pageHeight="1169" math="0" shadow="0">
      <root>
        <mxCell id="0" />
        <mxCell id="1" parent="0" />
        <mxCell id="y-yW4iQ_0nypHXhwV-ZQ-6" value="" style="edgeStyle=orthogonalEdgeStyle;rounded=0;orthogonalLoop=1;jettySize=auto;html=1;" edge="1" parent="1" source="y-yW4iQ_0nypHXhwV-ZQ-4" target="y-yW4iQ_0nypHXhwV-ZQ-5">
          <mxGeometry relative="1" as="geometry" />
        </mxCell>
        <mxCell id="y-yW4iQ_0nypHXhwV-ZQ-4" value="解析模块" style="rounded=0;whiteSpace=wrap;html=1;" vertex="1" parent="1">
          <mxGeometry x="370" y="100" width="120" height="60" as="geometry" />
        </mxCell>
        <mxCell id="y-yW4iQ_0nypHXhwV-ZQ-8" value="" style="edgeStyle=orthogonalEdgeStyle;rounded=0;orthogonalLoop=1;jettySize=auto;html=1;" edge="1" parent="1" source="y-yW4iQ_0nypHXhwV-ZQ-5" target="y-yW4iQ_0nypHXhwV-ZQ-7">
          <mxGeometry relative="1" as="geometry" />
        </mxCell>
        <mxCell id="y-yW4iQ_0nypHXhwV-ZQ-5" value="重合度计算模块" style="rounded=0;whiteSpace=wrap;html=1;" vertex="1" parent="1">
          <mxGeometry x="370" y="240" width="120" height="60" as="geometry" />
        </mxCell>
        <mxCell id="y-yW4iQ_0nypHXhwV-ZQ-10" value="" style="edgeStyle=orthogonalEdgeStyle;rounded=0;orthogonalLoop=1;jettySize=auto;html=1;" edge="1" parent="1" source="y-yW4iQ_0nypHXhwV-ZQ-7" target="y-yW4iQ_0nypHXhwV-ZQ-9">
          <mxGeometry relative="1" as="geometry" />
        </mxCell>
        <mxCell id="y-yW4iQ_0nypHXhwV-ZQ-7" value="相似度计算模块" style="rounded=0;whiteSpace=wrap;html=1;" vertex="1" parent="1">
          <mxGeometry x="370" y="380" width="120" height="60" as="geometry" />
        </mxCell>
        <mxCell id="y-yW4iQ_0nypHXhwV-ZQ-9" value="告警处理模块" style="rounded=0;whiteSpace=wrap;html=1;" vertex="1" parent="1">
          <mxGeometry x="370" y="520" width="120" height="60" as="geometry" />
        </mxCell>
      </root>
    </mxGraphModel>
  </diagram>
</mxfile>
